#!OML:ASF E:/inclinewalkrobotboard/Project1/Captureday1/Session1/subject1.ASF
:FULLY-SPECIFIED
:DEGREES
88
root 0 0 0 76.29977545299337 -27.45129375966407 -45.45714815947028
lowerback -11.14928038331201 7.865564330979071 9.558010065501454
upperback -20.49652268038315 10.076416910742935 2.9428790586266764
thorax -15.456627919783617 3.9709023615796664 -1.724865782913196
lowerneck -7.578298329709378 9.77655978145892 5.414168988526445
upperneck 11.680214045054118 11.687091242737571 7.284626174514974
head 4.799153239904432 6.270703070156664 2.0767986821006197
rclavicle 5.757809397159674E-15 -3.636989096869676E-15
rhumerus 111.42812043505948 -25.811546028094774 -115.87141158008568
rradius 1.2151960906605233
rwrist 69.71139843460388
rhand 12.869661397604322 -12.246455292174721
rfingers 7.12502000000002
rthumb 37.91011314137618 -38.30571313762655
lclavicle -7.996498703151664E-16 1.270059335617966E-15
lhumerus 0.4812503966319124 25.074501001623197 1.7065497799059344
lradius 9.33119077656475
lwrist -41.42354184396814
lhand 11.741107464829396 36.69885419240454
lfingers 7.125020000000045
lthumb 36.86246443118047 63.83923939864689
rfemur 183.77032657699667 -219.27920215658332 -191.6092227420506
rtibia 68.26747044343736
rfoot -19.307356332697854 -10.908701940069573
rtoes 48.808847382960664
lfemur -107.5070315133018 35.43731325772273 -23.36179162426624
ltibia 64.90159883273881
lfoot -40.38905640944634 35.71910876254254
ltoes 39.74321793404946
89
root 0 0 0 76.30004613423037 -27.452098347159673 -45.454643163975234
lowerback -11.153363075435978 7.865231573843202 9.557530723168844
upperback -20.49769084875929 10.076052336020265 2.943684638298902
thorax -15.455630097006768 3.970856398498139 -1.7236595344564476
lowerneck -7.576043408913842 9.775946330435684 5.414128044607374
upperneck 11.68431576579393 11.686063491487898 7.284743591373049
head 4.800273262353799 6.270233451944806 2.0767727268258267
rclavicle 5.797432837259434E-15 -3.600296514375047E-15
rhumerus 110.93872466234092 -25.670220841081925 -115.60414733891182
rradius 1.1895741008593212
rwrist 69.62497280846246
rhand 13.051905011961288 -12.325047188407199
rfingers 7.125020000000019
rthumb 38.08267362595935 -38.349335424104964
lclavicle -7.842582956553214E-16 1.3005285631331874E-15
lhumerus 0.38802092071200533 25.102940267225687 1.7486215871410096
lradius 9.307270779358703
lwrist -41.44170423693075
lhand 11.755742265843027 36.688015608884534
lfingers 7.125020000000045
lthumb 36.876771741687016 63.8277206329441
rfemur 183.7057134981032 -219.29859421282475 -191.62492284490136
rtibia 68.21861743561283
rfoot -19.52938677284863 -10.880840467839379
rtoes 48.8816497975621
lfemur -107.68661788939053 35.468332220462614 -23.443383367668346
ltibia 65.21312930329667
lfoot -40.203498263360586 35.70698919551633
ltoes 39.665212161736136
90
root 0 0 0 76.30654275802797 -27.420642936181142 -45.46106690159183
lowerback -11.160158132054711 7.864418255555716 9.563109616169092
upperback -20.504462068089502 10.075324717190105 2.9494815207536145
thorax -15.4585943517909 3.9703015425201684 -1.7203539597026145
lowerneck -7.56450043984448 9.774878447751483 5.412707976169318
upperneck 11.689913291987907 11.68516736859838 7.284955460400651
head 4.800651494809822 6.269527325307147 2.0765254678729628
rclavicle 5.91342211100979E-15 -3.487006277825773E-15
rhumerus 110.3876190400531 -25.490198903424744 -115.24727194297115
rradius 1.2210747761294058
rwrist 69.45162673748068
rhand 13.245253981490944 -12.397080723368154
rfingers 7.125020000000019
rthumb 38.26474446090818 -38.3815496237425
lclavicle -6.501995490420478E-16 1.4111909436008432E-15
lhumerus -0.0634124565346319 24.927486306702924 1.7497878392520718
lradius 9.377755582680553
lwrist -41.44509009660449
lhand 11.83638874018485 36.72130483712601
lfingers 7.125020000000046
lthumb 36.953804677462756 63.84546375451991
rfemur 183.63178399836698 -219.37255061565327 -191.67393882451825
rtibia 68.11091062646702
rfoot -20.035114264851472 -10.720285624799695
rtoes 48.92615049568478
lfemur -107.94138840082454 35.52316186127369 -23.542144308855033
ltibia 65.47904822905032
lfoot -39.90311106660957 35.72918926063243
ltoes 39.605509621760675
91
root 0 0 0 76.30533454509455 -27.42976593152094 -45.456339351205585
lowerback -11.163524270915609 7.864294191640372 9.561084432752757
upperback -20.504678611836773 10.07510606667262 2.9492978515405253
thorax -15.457223285933546 3.970413107680601 -1.7192751162338213
lowerneck -7.564224218146135 9.775076428069363 5.413033276971123
upperneck 11.690930005165104 11.685231097379779 7.285656843398225
head 4.800857800176227 6.269636456188161 2.0767816656481006
rclavicle 5.8887330672134735E-15 -3.5398866642706104E-15
rhumerus 110.03532809178476 -25.393632656004637 -115.09591504141595
rradius 1.1829713888560178
rwrist 69.40312501291857
rhand 13.369230877062112 -12.45187523154276
rfingers 7.125020000000018
rthumb 38.38244114526148 -38.41320855582857
lclavicle -6.892051831978434E-16 1.3567560957838687E-15
lhumerus 0.047109407217549304 24.96717002788743 1.7282202692763136
lradius 9.350770334729042
lwrist -41.44281498866782
lhand 11.863159332617178 36.716050626926815
lfingers 7.125020000000046
lthumb 36.97958092840011 63.837590575845496
rfemur 183.58556351181795 -219.38147381355128 -191.69168734685366
rtibia 68.0847507108441
rfoot -20.141354925602222 -10.730498160597996
rtoes 49.02352598458239
lfemur -108.08246731787287 35.54510947962434 -23.59493049278348
ltibia 65.77193428407129
lfoot -39.76505309779608 35.6994028782776
ltoes 39.53358796081655
